<svg width="171" height="66" viewBox="0 0 171 66" fill="none" xmlns="http://www.w3.org/2000/svg">
<path d="M61.0231 34.9208C61.081 34.4411 61.128 33.9561 61.1643 33.4659C54.5584 32.0321 43.5099 31.0917 30.9963 31.0917C18.4828 31.0917 7.43809 32.0321 0.828369 33.4659L33.6697 33.6669L2.80364 35.8519L8.91598 37.1005L1.56796 38.2909C1.93713 39.8714 2.42871 41.4193 3.03808 42.9202L15.9454 42.4084L10.5972 43.5009L37.3379 43.9691L4.19476 45.4386C5.26892 47.5232 6.57263 49.4757 8.08054 51.2583L21.7559 51.7662L10.0312 53.3746C10.7315 54.0624 11.4655 54.7153 12.2332 55.3334L20.2314 55.8361L14.0685 56.7077C18.9457 60.0701 24.6769 61.9081 30.5609 61.9966C36.4449 62.0852 42.2267 60.4205 47.1988 57.2063L36.2771 56.1482H48.7233C49.7163 55.4139 50.6649 54.6188 51.5638 53.7674L36.2797 52.245L54.1634 50.9859C54.3361 50.7786 54.5041 50.5697 54.6673 50.3589L33.2242 48.5072L56.6477 47.5152C56.8826 47.1334 57.1097 46.7458 57.329 46.3526L49.7271 45.0736L56.1451 44.6053L51.4084 44.1371L56.9094 43.0446L32.1556 40.0805H59.9688C60.2555 39.1105 60.4968 38.1243 60.6928 37.1217L51.1079 34.9314L61.0231 34.9208Z" fill="url(#paint0_linear_242_2)"/>
<path d="M30.996 31.0985C27.6037 31.0985 24.3203 31.1686 21.2039 31.2969L36.497 32.3458L28.7798 32.6579L44.7478 33.3603L26.5637 35.0797L40.4683 36.0942L27.7851 36.8746L54.597 37.811L39.9282 34.925L46.9576 34.6128L44.5963 34.0639L54.8289 33.5177L46.5003 32.3471L52.2384 32.117C45.179 31.4106 38.0891 31.0707 30.996 31.0985V31.0985Z" fill="#4392E3"/>
<path d="M23.2793 39.9138L46.7352 43.0339L23.7443 40.7722L42.4634 43.7363L38.4144 44.3606L48.0408 45.141L23.8971 46.6237L36.351 45.219H33.8292L38.3367 43.7363L26.4203 42.3316L29.0186 42.1755L14.123 40.0685L22.2987 40.5367L18.8611 39.6783L23.2793 39.9138Z" fill="#4392E3"/>
<path d="M57.132 27.4292L57.97 26.5734C58.081 26.4506 58.1412 26.2888 58.1379 26.1217C58.1347 25.9547 58.0682 25.7954 57.9525 25.6773C57.8368 25.5592 57.6809 25.4913 57.5173 25.488C57.3537 25.4847 57.1953 25.5461 57.075 25.6594L57.0064 25.7295L56.737 22.0909L57.5802 21.2298C57.6912 21.1071 57.7513 20.9452 57.7481 20.7782C57.7448 20.6111 57.6784 20.4519 57.5627 20.3337C57.447 20.2156 57.291 20.1478 57.1274 20.1444C56.9638 20.1411 56.8053 20.2025 56.6851 20.3159L56.6113 20.3913L56.2927 16.082C58.6047 13.8546 60.4375 12.081 60.852 11.6577C61.3954 11.0731 61.7655 10.3434 61.9196 9.55288C62.0736 8.7624 62.0053 7.94352 61.7224 7.19106C60.9855 6.9024 60.1837 6.83268 59.4096 6.98998C58.6355 7.14727 57.9209 7.52515 57.3483 8.0799C56.9339 8.50315 55.1969 10.3747 53.0157 12.7357L48.7957 12.4103L48.8695 12.3349C48.9805 12.2121 49.0407 12.0503 49.0374 11.8833C49.0341 11.7162 48.9677 11.557 48.852 11.4388C48.7363 11.3207 48.5804 11.2528 48.4168 11.2495C48.2532 11.2462 48.0947 11.3076 47.9745 11.421L47.1313 12.282L43.568 12.0069L43.6367 11.9368C43.7477 11.814 43.8078 11.6522 43.8046 11.4852C43.8013 11.3181 43.7349 11.1588 43.6192 11.0407C43.5035 10.9226 43.3475 10.8547 43.1839 10.8514C43.0204 10.8481 42.8619 10.9095 42.7417 11.0228L41.9036 11.8786L36.3949 11.454L35.1592 12.7158L45.2195 15.6773L48.1053 18.0581C45.5226 21.2087 41.4632 25.9716 41.4632 25.9716L36.0037 25.3102L35.1708 26.1594L39.1045 28.6314C38.9835 28.7424 38.8938 28.8845 38.8451 29.043C38.7963 29.2015 38.7902 29.3705 38.8274 29.5322C38.677 29.5644 38.538 29.6374 38.425 29.7437C38.312 29.8499 38.2292 29.9853 38.1854 30.1356C38.1416 30.286 38.1383 30.4456 38.176 30.5976C38.2137 30.7497 38.2909 30.8885 38.3996 30.9994C38.5082 31.1103 38.6441 31.1892 38.793 31.2277C38.9419 31.2662 39.0982 31.2629 39.2454 31.2181C39.3926 31.1734 39.5253 31.0888 39.6293 30.9734C39.7333 30.858 39.8049 30.7161 39.8364 30.5625C39.9947 30.6005 40.1602 30.5943 40.3154 30.5445C40.4706 30.4947 40.6098 30.4031 40.7184 30.2795L43.1393 34.2964L43.9709 33.4473L43.3232 27.8722C43.3232 27.8722 47.9862 23.727 51.0728 21.0896L53.4042 24.0352L56.3044 34.3083L57.54 33.0465L57.132 27.4292Z" fill="#0C264C"/>
<path d="M26.8073 40.4521C24.9201 41.8012 22.9967 43.0882 21.0382 44.2879C19.1015 45.4877 17.1049 46.5839 15.0567 47.572C14.0438 48.0548 13.0219 48.4979 12.0012 48.8775C11.016 49.2531 10.0052 49.5542 8.97675 49.7782C8.51164 49.8772 8.0403 49.9426 7.56621 49.974C7.18064 50.0037 6.79296 49.9841 6.41213 49.9158C6.2878 49.8896 6.16663 49.8497 6.05076 49.7967C5.99787 49.7703 5.95306 49.7296 5.92122 49.679C5.90956 49.6513 5.93547 49.6354 5.9536 49.6288C5.96552 49.6275 5.97657 49.6218 5.98467 49.6128C5.99278 49.6038 5.9974 49.5921 5.99765 49.5798C6.00801 49.5177 5.98858 49.306 6.01967 48.9992C6.03132 48.8788 6.05075 48.7426 6.07536 48.6024C4.28499 45.9492 2.91386 43.0253 2.01212 39.9376C1.65074 40.8317 1.31528 41.751 1.01218 42.702C0.577987 44.0384 0.269605 45.414 0.0912441 46.8102C-0.00608691 47.6131 -0.025608 48.4238 0.0329597 49.2307C0.069363 49.6955 0.143444 50.1565 0.254446 50.6089C0.377609 51.1234 0.560234 51.6211 0.798464 52.0916C1.32605 53.1478 2.1596 54.0124 3.18563 54.5676C3.65119 54.8128 4.14511 54.9972 4.65575 55.1165C5.10012 55.2148 5.55228 55.2719 6.00671 55.2871C6.78293 55.3032 7.55837 55.2273 8.31746 55.061C8.98995 54.9159 9.65204 54.7246 10.2992 54.4882C11.4957 54.0467 12.659 53.5162 13.7796 52.901C14.8715 52.3072 15.9142 51.6696 16.9258 51.0004C18.9201 49.6697 20.8453 48.234 22.6936 46.6991C24.5316 45.1846 26.3022 43.6054 28.0184 41.9772C31.4301 38.7271 34.6727 35.2967 37.7329 31.7001C34.2432 34.8102 30.5963 37.7316 26.8073 40.4521V40.4521Z" fill="#0C264C"/>
<path d="M45.8842 31.5704C43.5229 30.7331 38.5375 29.0785 36.728 29.3417C34.9238 29.7631 33.0592 29.8424 31.227 29.5758C29.1637 29.2253 28.1326 28.9912 26.6431 28.7571C25.1535 28.523 25.3828 27.6989 23.3194 27.6989C21.2561 27.6989 18.7355 27.8167 18.7355 27.8167L14.4948 28.4013C14.1306 27.9097 13.5991 27.5755 13.0053 27.4648C12.0882 27.3471 11.5157 26.4067 10.2541 26.2943C9.4163 26.134 8.55352 26.1743 7.73353 26.412C6.99213 26.6512 6.21841 26.7695 5.44091 26.7625C4.75313 26.7625 4.4047 26.412 3.83608 26.412C3.26746 26.412 3.1483 26.1779 2.34653 26.1779C2.08748 26.1779 1.6173 26.203 1.11474 26.2374C0.866343 27.8435 0.741613 29.4669 0.741699 31.0929C0.741699 31.8918 0.77106 32.6832 0.829778 33.4671C7.43562 32.0333 18.4842 31.0929 30.9977 31.0929C36.298 31.0968 41.3352 31.2662 45.8842 31.5704Z" fill="#0C264C"/>
<path d="M66.328 48.616L63.628 41.62C63.548 41.412 63.464 41.172 63.376 40.9C63.288 40.62 63.204 40.324 63.124 40.012C62.956 40.66 62.784 41.2 62.608 41.632L59.908 48.616H66.328ZM71.176 55H69.376C69.168 55 69 54.948 68.872 54.844C68.744 54.74 68.648 54.608 68.584 54.448L66.976 50.296H59.26L57.652 54.448C57.604 54.592 57.512 54.72 57.376 54.832C57.24 54.944 57.072 55 56.872 55H55.072L61.948 37.804H64.3L71.176 55ZM75.7662 55H73.4382V37.804H75.7662V55ZM84.9288 46.132C85.6008 46.132 86.1928 46.052 86.7048 45.892C87.2248 45.724 87.6568 45.492 88.0008 45.196C88.3528 44.892 88.6168 44.532 88.7928 44.116C88.9688 43.7 89.0568 43.24 89.0568 42.736C89.0568 41.712 88.7208 40.94 88.0488 40.42C87.3768 39.9 86.3688 39.64 85.0247 39.64H82.4808V46.132H84.9288ZM92.8728 55H90.8088C90.3848 55 90.0728 54.836 89.8728 54.508L85.4088 48.364C85.2728 48.172 85.1248 48.036 84.9648 47.956C84.8128 47.868 84.5728 47.824 84.2448 47.824H82.4808V55H80.1648V37.804H85.0247C86.1128 37.804 87.0528 37.916 87.8448 38.14C88.6368 38.356 89.2888 38.672 89.8008 39.088C90.3208 39.504 90.7048 40.008 90.9528 40.6C91.2008 41.184 91.3248 41.84 91.3248 42.568C91.3248 43.176 91.2288 43.744 91.0368 44.272C90.8448 44.8 90.5648 45.276 90.1968 45.7C89.8368 46.116 89.3928 46.472 88.8648 46.768C88.3448 47.064 87.7528 47.288 87.0888 47.44C87.3848 47.608 87.6408 47.852 87.8568 48.172L92.8728 55ZM101.248 53.152C101.912 53.152 102.484 53.076 102.964 52.924C103.444 52.772 103.836 52.56 104.14 52.288C104.452 52.008 104.68 51.68 104.824 51.304C104.968 50.92 105.04 50.5 105.04 50.044C105.04 49.156 104.724 48.456 104.092 47.944C103.46 47.424 102.512 47.164 101.248 47.164H97.5276V53.152H101.248ZM97.5276 39.64V45.508H100.6C101.256 45.508 101.824 45.436 102.304 45.292C102.792 45.148 103.192 44.948 103.504 44.692C103.824 44.436 104.06 44.128 104.212 43.768C104.364 43.4 104.44 43 104.44 42.568C104.44 41.552 104.136 40.812 103.528 40.348C102.92 39.876 101.976 39.64 100.696 39.64H97.5276ZM100.696 37.804C101.752 37.804 102.66 37.908 103.42 38.116C104.188 38.324 104.816 38.62 105.304 39.004C105.8 39.388 106.164 39.86 106.396 40.42C106.628 40.972 106.744 41.596 106.744 42.292C106.744 42.716 106.676 43.124 106.54 43.516C106.412 43.9 106.216 44.26 105.952 44.596C105.688 44.932 105.352 45.236 104.944 45.508C104.544 45.772 104.072 45.988 103.528 46.156C104.792 46.396 105.74 46.848 106.372 47.512C107.012 48.168 107.332 49.032 107.332 50.104C107.332 50.832 107.196 51.496 106.924 52.096C106.66 52.696 106.268 53.212 105.748 53.644C105.236 54.076 104.604 54.412 103.852 54.652C103.1 54.884 102.244 55 101.284 55H95.2116V37.804H100.696ZM117.363 53.152C118.075 53.152 118.711 53.032 119.271 52.792C119.831 52.552 120.303 52.216 120.687 51.784C121.079 51.352 121.375 50.836 121.575 50.236C121.783 49.636 121.887 48.976 121.887 48.256V37.804H124.203V48.256C124.203 49.248 124.043 50.168 123.723 51.016C123.411 51.864 122.959 52.6 122.367 53.224C121.783 53.84 121.067 54.324 120.219 54.676C119.371 55.028 118.419 55.204 117.363 55.204C116.307 55.204 115.355 55.028 114.507 54.676C113.659 54.324 112.939 53.84 112.347 53.224C111.755 52.6 111.299 51.864 110.979 51.016C110.667 50.168 110.511 49.248 110.511 48.256V37.804H112.827V48.244C112.827 48.964 112.927 49.624 113.127 50.224C113.335 50.824 113.631 51.34 114.015 51.772C114.407 52.204 114.883 52.544 115.443 52.792C116.011 53.032 116.651 53.152 117.363 53.152ZM137.172 40.492C137.1 40.612 137.02 40.704 136.932 40.768C136.852 40.824 136.752 40.852 136.632 40.852C136.496 40.852 136.336 40.784 136.152 40.648C135.968 40.512 135.736 40.364 135.456 40.204C135.184 40.036 134.852 39.884 134.46 39.748C134.076 39.612 133.608 39.544 133.056 39.544C132.536 39.544 132.076 39.616 131.676 39.76C131.284 39.896 130.952 40.084 130.68 40.324C130.416 40.564 130.216 40.848 130.08 41.176C129.944 41.496 129.876 41.844 129.876 42.22C129.876 42.7 129.992 43.1 130.224 43.42C130.464 43.732 130.776 44 131.16 44.224C131.552 44.448 131.992 44.644 132.48 44.812C132.976 44.972 133.48 45.14 133.992 45.316C134.512 45.492 135.016 45.692 135.504 45.916C136 46.132 136.44 46.408 136.824 46.744C137.216 47.08 137.528 47.492 137.76 47.98C138 48.468 138.12 49.068 138.12 49.78C138.12 50.532 137.992 51.24 137.736 51.904C137.48 52.56 137.104 53.132 136.608 53.62C136.12 54.108 135.516 54.492 134.796 54.772C134.084 55.052 133.272 55.192 132.36 55.192C131.24 55.192 130.224 54.992 129.312 54.592C128.4 54.184 127.62 53.636 126.972 52.948L127.644 51.844C127.708 51.756 127.784 51.684 127.872 51.628C127.968 51.564 128.072 51.532 128.184 51.532C128.288 51.532 128.404 51.576 128.532 51.664C128.668 51.744 128.82 51.848 128.988 51.976C129.156 52.104 129.348 52.244 129.564 52.396C129.78 52.548 130.024 52.688 130.296 52.816C130.576 52.944 130.892 53.052 131.244 53.14C131.596 53.22 131.992 53.26 132.432 53.26C132.984 53.26 133.476 53.184 133.908 53.032C134.34 52.88 134.704 52.668 135 52.396C135.304 52.116 135.536 51.784 135.696 51.4C135.856 51.016 135.936 50.588 135.936 50.116C135.936 49.596 135.816 49.172 135.576 48.844C135.344 48.508 135.036 48.228 134.652 48.004C134.268 47.78 133.828 47.592 133.332 47.44C132.836 47.28 132.332 47.12 131.82 46.96C131.308 46.792 130.804 46.6 130.308 46.384C129.812 46.168 129.372 45.888 128.988 45.544C128.604 45.2 128.292 44.772 128.052 44.26C127.82 43.74 127.704 43.1 127.704 42.34C127.704 41.732 127.82 41.144 128.052 40.576C128.292 40.008 128.636 39.504 129.084 39.064C129.54 38.624 130.096 38.272 130.752 38.008C131.416 37.744 132.176 37.612 133.032 37.612C133.992 37.612 134.864 37.764 135.648 38.068C136.44 38.372 137.136 38.812 137.736 39.388L137.172 40.492Z" fill="#1E62F0"/>
<defs>
<linearGradient id="paint0_linear_242_2" x1="0.828369" y1="46.5458" x2="61.1643" y2="46.5458" gradientUnits="userSpaceOnUse">
<stop stop-color="#3784DE"/>
<stop offset="1" stop-color="#7BD2FD"/>
</linearGradient>
</defs>
</svg>
